<svg width="1266" height="272" viewBox="0 0 1266 272" fill="none" xmlns="http://www.w3.org/2000/svg">
<line x1="1265" y1="41" x2="1265" y2="272" stroke="black" stroke-width="2"/>
<line x1="1" y1="41" x2="1.00001" y2="272" stroke="black" stroke-width="2"/>
<line y1="-1" x2="272" y2="-1" transform="matrix(4.37114e-08 -1 -1 -4.37114e-08 111 272)" stroke="black" stroke-width="2"/>
<line y1="-1" x2="272" y2="-1" transform="matrix(4.37114e-08 -1 -1 -4.37114e-08 233 272)" stroke="black" stroke-width="2"/>
<line y1="-1" x2="272" y2="-1" transform="matrix(4.37114e-08 -1 -1 -4.37114e-08 379 272)" stroke="black" stroke-width="2"/>
<line y1="-1" x2="272" y2="-1" transform="matrix(4.37114e-08 -1 -1 -4.37114e-08 528 272)" stroke="black" stroke-width="2"/>
<line y1="-1" x2="272" y2="-1" transform="matrix(4.37114e-08 -1 -1 -4.37114e-08 658 272)" stroke="black" stroke-width="2"/>
<line y1="-1" x2="272" y2="-1" transform="matrix(4.37114e-08 -1 -1 -4.37114e-08 793 272)" stroke="black" stroke-width="2"/>
<line y1="-1" x2="272" y2="-1" transform="matrix(4.37114e-08 -1 -1 -4.37114e-08 901 272)" stroke="black" stroke-width="2"/>
<line y1="-1" x2="272" y2="-1" transform="matrix(4.37114e-08 -1 -1 -4.37114e-08 1016 272)" stroke="black" stroke-width="2"/>
<line y1="-1" x2="272" y2="-1" transform="matrix(4.37114e-08 -1 -1 -4.37114e-08 1143 272)" stroke="black" stroke-width="2"/>
</svg>
